<?xml version="1.0" encoding="UTF-8"?>
<svg version="1.1" xmlns="http://www.w3.org/2000/svg" width="1251" height="1353">
<path d="M0 0 C4.82005069 2.7515014 9.65443018 5.47754101 14.48779297 8.20556641 C16.40453243 9.28877094 18.32119901 10.37210444 20.23779297 11.45556641 C21.66091797 12.25994141 21.66091797 12.25994141 23.11279297 13.08056641 C54.73779297 30.95556641 54.73779297 30.95556641 57.61230469 32.58032227 C59.53056259 33.66453375 61.44885691 34.7486808 63.3671875 35.83276367 C68.13480775 38.52713634 72.90180674 41.22259589 77.66748047 43.92041016 C87.63533556 49.56144609 97.61499549 55.18025 107.61279297 60.76806641 C116.1145415 65.52034928 124.58660907 70.32061475 133.03515625 75.16674805 C139.82812547 79.05736037 146.65338082 82.88829718 153.48779297 86.70556641 C162.03398889 91.47892949 170.55106225 96.29871511 179.04125977 101.17089844 C185.76675846 105.02402887 192.52975125 108.80726674 199.30029297 112.58056641 C207.6497159 117.23548051 215.93466163 121.98581065 224.17529297 126.83056641 C232.5967424 131.78033304 241.10088491 136.53287967 249.69946289 141.16699219 C257.57457851 145.43147486 265.29405428 149.93999251 273.00927734 154.48583984 C279.76360996 158.45033942 286.59081287 162.24564499 293.48779297 165.95556641 C306.6661299 173.08231545 319.27370983 180.07685445 329.98779297 190.70556641 C330.83341797 191.50994141 331.67904297 192.31431641 332.55029297 193.14306641 C333.35466797 193.98869141 334.15904297 194.83431641 334.98779297 195.70556641 C335.98552734 196.7284375 335.98552734 196.7284375 337.00341797 197.77197266 C350.62533757 212.20472081 359.81638234 230.81741253 362.08520126 250.59680271 C362.17031294 251.33634618 362.25542462 252.07588964 362.34311543 252.83784351 C363.18127719 260.67078387 363.26703981 268.45110657 363.24176025 276.32078552 C363.24407184 277.91892817 363.247253 279.51706975 363.25121474 281.11520916 C363.2594757 285.45448788 363.25547761 289.79367733 363.24924231 294.13295615 C363.24468271 298.83311955 363.25171885 303.53326851 363.25720215 308.23342896 C363.26606084 317.42070473 363.26418985 326.60794769 363.25837687 335.79522472 C363.25384618 343.26749346 363.25325354 350.73975306 363.2554245 358.21202278 C363.25573097 359.27858724 363.25603743 360.3451517 363.25635318 361.44403629 C363.25699269 363.61126605 363.25764111 365.77849581 363.25829837 367.94572557 C363.26399141 388.23290462 363.25746004 408.52006555 363.24669763 428.80724163 C363.23776435 446.18392211 363.23931433 463.56057586 363.24853516 480.93725586 C363.25925816 501.15404689 363.26344083 521.37082207 363.25731063 541.58761555 C363.25667358 543.74684179 363.25604484 545.90606802 363.2554245 548.06529427 C363.25511595 549.12745733 363.2548074 550.18962039 363.2544895 551.28397022 C363.25276855 558.73972161 363.2556647 566.19546287 363.26038361 573.65121269 C363.2660151 582.74814631 363.26442859 591.84504546 363.25382212 600.94197517 C363.24859561 605.57612729 363.24645661 610.21022211 363.25312042 614.8443737 C363.25914528 619.0987994 363.25569885 623.35311547 363.24516532 627.60753144 C363.24295863 629.13425026 363.24400479 630.66097863 363.24891689 632.18769114 C363.27283895 640.25084949 362.96737421 648.19170342 362.10473251 656.21289158 C362.02828995 656.9345999 361.95184738 657.65630822 361.87308837 658.39988649 C358.82157711 684.29181746 344.61630447 707.81168906 324.35839844 724.00830078 C314.00680593 731.73699203 302.35200968 737.78126291 291.15966797 744.17041016 C286.4867274 746.83915658 281.84126946 749.54390586 277.23779297 752.33056641 C271.46485597 755.82100819 265.67092124 759.27393884 259.86279297 762.70556641 C258.94377197 763.24858398 258.02475098 763.79160156 257.07788086 764.35107422 C251.72734453 767.50870853 246.37026941 770.65499671 241.00732422 773.79150391 C238.56326459 775.2211073 236.11923864 776.65076821 233.67529297 778.08056641 C232.75422256 778.6193895 232.75422256 778.6193895 231.81454468 779.1690979 C222.20135835 784.79535727 212.63799693 790.50006884 203.09667969 796.24755859 C195.03319631 801.09725076 186.91885357 805.85489033 178.78417969 810.58398438 C171.37645236 814.89091535 163.99363899 819.23815488 156.62109375 823.60498047 C151.43594015 826.67391391 146.24377783 829.7304815 141.04248047 832.77197266 C140.44283478 833.12265808 139.84318909 833.47334351 139.22537231 833.83465576 C138.61958344 834.18892639 138.01379456 834.54319702 137.38964844 834.90820312 C125.91575195 841.61835159 114.48271646 848.38884842 103.09667969 855.24755859 C95.03319631 860.09725076 86.91885357 864.85489033 78.78417969 869.58398438 C71.37645236 873.89091535 63.99363899 878.23815488 56.62109375 882.60498047 C51.43594007 885.67391396 46.24376842 888.73046533 41.04248047 891.77197266 C40.44256287 892.12283936 39.84264526 892.47370605 39.22454834 892.83520508 C34.02033218 895.87882483 34.02033218 895.87882483 31.81811523 897.16644287 C24.17115019 901.6395804 16.55220179 906.15393563 8.96728516 910.73168945 C-23.19708858 930.14387585 -53.37812803 945.61826406 -92.02099609 936.23144531 C-106.4643958 932.41694274 -119.1146199 925.05624172 -132.01220703 917.70556641 C-133.31399902 916.9659668 -133.31399902 916.9659668 -134.64208984 916.21142578 C-138.94481686 913.76442381 -143.240099 911.30476489 -147.53173828 908.83837891 C-153.50013311 905.41576035 -159.50500592 902.0594685 -165.51220703 898.70556641 C-174.05849212 893.93236487 -182.57547816 889.11241665 -191.06567383 884.24023438 C-197.79117252 880.38710395 -204.55416532 876.60386607 -211.32470703 872.83056641 C-219.67412996 868.17565231 -227.95907569 863.42532216 -236.19970703 858.58056641 C-244.62256496 853.62997192 -253.12802307 848.8764143 -261.72827148 844.24194336 C-268.53329516 840.55728388 -275.22070169 836.69703441 -281.88720703 832.76806641 C-290.89545776 827.46240574 -300.00875671 822.40245432 -309.22045898 817.4597168 C-318.35947183 812.54698386 -327.35769807 807.40794977 -336.34960938 802.23242188 C-341.01663828 799.5561337 -345.70208676 796.9125161 -350.38720703 794.26806641 C-351.34377197 793.72794922 -352.30033691 793.18783203 -353.28588867 792.63134766 C-355.22550329 791.53631193 -357.16520076 790.44142294 -359.10498047 789.34667969 C-363.90857685 786.63507616 -368.71028022 783.92012503 -373.51220703 781.20556641 C-374.93726563 780.40022461 -374.93726563 780.40022461 -376.39111328 779.57861328 C-381.15891433 776.88419111 -385.92606263 774.18862646 -390.69189453 771.49072266 C-400.65975113 765.84968587 -410.63956291 760.23115867 -420.63720703 754.64306641 C-430.99146594 748.85187743 -441.31848366 743.01617507 -451.59716797 737.09179688 C-453.96130881 735.73478194 -456.33363173 734.39309491 -458.70751953 733.05322266 C-478.51560791 721.78651267 -491.72977597 708.54433464 -498.43408203 686.28759766 C-499.77244296 680.31018837 -500.13752298 674.40923853 -500.1436348 668.29863453 C-500.14568743 667.59502022 -500.14774006 666.89140591 -500.1498549 666.16646996 C-500.15548606 663.82090768 -500.15407248 661.47540484 -500.15264893 659.12983704 C-500.15523482 657.42610631 -500.1582486 655.72237619 -500.16165233 654.0186469 C-500.16969973 649.3456084 -500.17151064 644.67258529 -500.17224979 639.99954069 C-500.17410438 634.9556019 -500.18165391 629.91167101 -500.18838501 624.86773682 C-500.20195444 613.8402938 -500.20799134 602.81285442 -500.21239567 591.78540444 C-500.21516136 584.89317705 -500.21939939 578.00095105 -500.22389984 571.10872459 C-500.23609242 552.0087267 -500.24639063 532.90872992 -500.24977493 513.80872822 C-500.2499945 512.58673332 -500.25021407 511.36473842 -500.25044028 510.10571338 C-500.25065856 508.88085941 -500.25087684 507.65600544 -500.25110173 506.39403468 C-500.25154519 503.91218523 -500.25199175 501.43033578 -500.25244141 498.94848633 C-500.25266284 497.71741373 -500.25288427 496.48634113 -500.25311241 495.2179633 C-500.25705607 475.2931075 -500.27449697 455.36828838 -500.29780093 435.44344673 C-500.32155929 414.96387587 -500.33397888 394.48432337 -500.33514285 374.00473851 C-500.33605728 362.51569985 -500.34175053 351.02670894 -500.35996246 339.53768349 C-500.37542431 329.74928026 -500.38044834 319.96093952 -500.37222436 310.1725264 C-500.36833884 305.18564093 -500.36914377 300.19888105 -500.38328171 295.21201134 C-500.47396671 261.22838529 -500.42339321 227.95553831 -477.01220703 200.70556641 C-476.50560547 200.05587891 -475.99900391 199.40619141 -475.47705078 198.73681641 C-468.0139765 189.49507331 -458.10637534 183.05689893 -447.78198242 177.44091797 C-441.41604158 173.97680306 -435.21412586 170.26683469 -429.01220703 166.51806641 C-419.657189 160.87534589 -410.25680694 155.31963818 -400.81176758 149.82910156 C-393.40308327 145.52134675 -386.0191218 141.17361096 -378.64550781 136.80615234 C-373.46035421 133.7372189 -368.26819189 130.68065131 -363.06689453 127.63916016 C-362.46724884 127.28847473 -361.86760315 126.93778931 -361.24978638 126.57647705 C-360.6439975 126.22220642 -360.03820862 125.86793579 -359.4140625 125.50292969 C-347.94016602 118.79278122 -336.50713052 112.02228439 -325.12109375 105.16357422 C-317.05761037 100.31388206 -308.94326763 95.55624248 -300.80859375 90.82714844 C-293.40086642 86.52021746 -286.01805305 82.17297794 -278.64550781 77.80615234 C-273.46035421 74.7372189 -268.26819189 71.68065131 -263.06689453 68.63916016 C-262.46724884 68.28847473 -261.86760315 67.93778931 -261.24978638 67.57647705 C-260.6439975 67.22220642 -260.03820862 66.86793579 -259.4140625 66.50292969 C-248.97459687 60.39773565 -238.55939961 54.25819627 -228.19970703 48.01806641 C-217.26818907 41.43483078 -206.26039157 34.99037834 -195.22851562 28.57714844 C-189.33863606 25.14980543 -183.455293 21.71132719 -177.57470703 18.26806641 C-176.96429565 17.91074432 -176.35388428 17.55342224 -175.72497559 17.18527222 C-167.11919855 12.14494478 -158.55389458 7.04148993 -150.01220703 1.89306641 C-94.43213011 -31.51132132 -55.9413285 -31.98852464 0 0 Z " fill="#3CDB83" transform="translate(694.01220703125,220.29443359375)"/>
<path d="M0 0 C16.14446597 18.73911229 18.32995527 43.9596957 18.25396729 67.61521912 C18.25627887 69.21336177 18.25946003 70.81150335 18.26342177 72.40964276 C18.27168273 76.74892147 18.26768465 81.08811093 18.26144934 85.42738974 C18.25688974 90.12755314 18.26392588 94.8277021 18.26940918 99.52786255 C18.27826787 108.71513833 18.27639689 117.90238129 18.2705839 127.08965831 C18.26605321 134.56192706 18.26546057 142.03418665 18.26763153 149.50645638 C18.267938 150.57302083 18.26824446 151.63958529 18.26856022 152.73846989 C18.26919972 154.90569965 18.26984814 157.07292941 18.2705054 159.24015916 C18.27619844 179.52733821 18.26966707 199.81449914 18.25890467 220.10167522 C18.24997138 237.4783557 18.25152136 254.85500945 18.26074219 272.23168945 C18.2714652 292.44848049 18.27564786 312.66525566 18.26951766 332.88204914 C18.26888062 335.04127538 18.26825187 337.20050162 18.26763153 339.35972786 C18.26732298 340.42189092 18.26701443 341.48405399 18.26669653 342.57840381 C18.26497558 350.0341552 18.26787173 357.48989647 18.27259064 364.94564629 C18.27822214 374.04257991 18.27663562 383.13947905 18.26602915 392.23640876 C18.26080264 396.87056089 18.25866364 401.5046557 18.26532745 406.1388073 C18.27135231 410.393233 18.26790588 414.64754907 18.25737235 418.90196503 C18.25516567 420.42868385 18.25621182 421.95541223 18.26112393 423.48212474 C18.28504598 431.54528308 17.97958125 439.48613701 17.11693954 447.50732517 C17.04049698 448.22903349 16.96405441 448.95074181 16.88529541 449.69432008 C13.83378414 475.58625106 -0.37148849 499.10612266 -20.62939453 515.30273438 C-30.98098704 523.03142563 -42.63578329 529.0756965 -53.828125 535.46484375 C-58.50106557 538.13359018 -63.14652351 540.83833945 -67.75 543.625 C-73.522937 547.11544178 -79.31687173 550.56837243 -85.125 554 C-86.044021 554.54301758 -86.96304199 555.08603516 -87.90991211 555.64550781 C-93.26044844 558.80314212 -98.61752355 561.94943031 -103.98046875 565.0859375 C-106.42452838 566.51554089 -108.86855433 567.94520181 -111.3125 569.375 C-112.2335704 569.91382309 -112.2335704 569.91382309 -113.17324829 570.46353149 C-122.78643461 576.08979086 -132.34979604 581.79450243 -141.89111328 587.54199219 C-149.95459666 592.39168435 -158.0689394 597.14932393 -166.20361328 601.87841797 C-173.61134061 606.18534895 -180.99415398 610.53258847 -188.36669922 614.89941406 C-193.55185282 617.96834751 -198.74401514 621.0249151 -203.9453125 624.06640625 C-204.54495819 624.41709167 -205.14460388 624.7677771 -205.76242065 625.12908936 C-206.36820953 625.48335999 -206.97399841 625.83763062 -207.59814453 626.20263672 C-219.07204102 632.91278519 -230.50507651 639.68328201 -241.89111328 646.54199219 C-249.95459666 651.39168435 -258.0689394 656.14932393 -266.20361328 660.87841797 C-273.61134061 665.18534895 -280.99415398 669.53258847 -288.36669922 673.89941406 C-293.5518529 676.96834756 -298.74402455 680.02489893 -303.9453125 683.06640625 C-304.8451889 683.5927063 -304.8451889 683.5927063 -305.76324463 684.12963867 C-310.96746079 687.17325843 -310.96746079 687.17325843 -313.16967773 688.46087646 C-320.81664278 692.93401399 -328.43559118 697.44836923 -336.02050781 702.02612305 C-382.64585387 730.16594993 -382.64585387 730.16594993 -406.24462891 730.02783203 C-407.13743561 730.02381378 -408.03024231 730.01979553 -408.95010376 730.01565552 C-409.62656952 730.0104892 -410.30303528 730.00532288 -411 730 C-411.13217535 701.88209047 -411.2626203 673.76417334 -411.39115143 645.64624691 C-411.4509044 632.58276436 -411.51117576 619.51928463 -411.57275391 606.45581055 C-412.10252599 493.95403548 -412.10252599 493.95403548 -412 443 C-413.10398636 443.00922989 -414.20797272 443.01845978 -415.34541321 443.02796936 C-424.61546045 442.95702364 -432.40152092 438.49197163 -440.3125 434.0625 C-441.87955688 433.19915039 -441.87955688 433.19915039 -443.47827148 432.31835938 C-451.94526574 427.63648141 -460.35300254 422.84984334 -468.73828125 418.0234375 C-474.22732761 414.86422977 -479.73593637 411.74029814 -485.25 408.625 C-486.67493774 407.81977905 -486.67493774 407.81977905 -488.12866211 406.99829102 C-495.28376599 402.95947766 -502.45314363 398.94646856 -509.625 394.9375 C-518.11955882 390.18915905 -526.58626836 385.39593638 -535.02539062 380.54980469 C-539.82574501 377.79811413 -544.64178356 375.07753313 -549.4765625 372.38671875 C-550.58193359 371.77119141 -551.68730469 371.15566406 -552.82617188 370.52148438 C-554.95343304 369.33883296 -557.08222867 368.1589354 -559.21289062 366.98242188 C-583.91631697 353.24751096 -583.91631697 353.24751096 -588 341 C-588.38031673 337.39229298 -588.38031673 337.39229298 -588.38768005 333.48139954 C-588.39575836 332.39481978 -588.39575836 332.39481978 -588.40399987 331.28628892 C-588.41822687 328.87598563 -588.41118889 326.46623565 -588.40405273 324.0559082 C-588.40975926 322.32066916 -588.41672462 320.58543387 -588.42485046 318.85020447 C-588.44277091 314.14742962 -588.44161495 309.4448415 -588.43590808 304.74204278 C-588.432813 300.80853444 -588.43891261 296.8750618 -588.44494683 292.94155854 C-588.45898832 283.654775 -588.45743536 274.36808344 -588.44604492 265.08129883 C-588.43457854 255.52178693 -588.44861532 245.96255608 -588.4754414 236.40308124 C-588.49764919 228.17944602 -588.50422392 219.95589867 -588.49836498 211.73223561 C-588.49500459 206.82798135 -588.49734859 201.92390698 -588.51461601 197.01967812 C-588.53016294 192.40254081 -588.52604425 187.78581688 -588.50731087 183.16869545 C-588.50364557 181.48215815 -588.50667278 179.79558971 -588.51719666 178.10908127 C-588.59272443 164.99522706 -587.3733541 152.97209257 -578 143 C-569.79566089 134.7231844 -569.79566089 134.7231844 -564 134 C-564 133.34 -564 132.68 -564 132 C-558.7792663 128.13434607 -553.33605675 125.37740364 -547 124 C-547 123.34 -547 122.68 -547 122 C-544.525 121.505 -544.525 121.505 -542 121 C-542 120.34 -542 119.68 -542 119 C-540.390625 117.7109375 -540.390625 117.7109375 -538.25 116.375 C-537.55390625 115.92898438 -536.8578125 115.48296875 -536.140625 115.0234375 C-534 114 -534 114 -530 114 C-530 113.34 -530 112.68 -530 112 C-527.525 111.505 -527.525 111.505 -525 111 C-525 110.34 -525 109.68 -525 109 C-519.7792663 105.13434607 -514.33605675 102.37740364 -508 101 C-508 100.34 -508 99.68 -508 99 C-506.35 98.67 -504.7 98.34 -503 98 C-503 97.34 -503 96.68 -503 96 C-498.00791529 91.87846958 -492.14814677 89.75051401 -486 88 C-486 87.34 -486 86.68 -486 86 C-481.00791529 81.87846958 -475.14814677 79.75051401 -469 78 C-469 77.34 -469 76.68 -469 76 C-467.35 75.67 -465.7 75.34 -464 75 C-464 74.34 -464 73.68 -464 73 C-459.00791529 68.87846958 -453.14814677 66.75051401 -447 65 C-447 64.34 -447 63.68 -447 63 C-437.44502455 55.89501826 -425.04171879 50.79582812 -413 52 C-412.29359375 52.05929687 -411.5871875 52.11859375 -410.859375 52.1796875 C-395.38930429 54.27992889 -380.25142584 65.70998649 -366.98779297 73.29443359 C-362.16774228 76.04593499 -357.33336279 78.77197461 -352.5 81.5 C-350.58326054 82.58320453 -348.66659396 83.66653803 -346.75 84.75 C-345.80125 85.28625 -344.8525 85.8225 -343.875 86.375 C-333.33333333 92.33333333 -322.79166667 98.29166667 -312.25 104.25 C-311.3007666 104.7864917 -310.3515332 105.3229834 -309.37353516 105.87573242 C-307.4616421 106.95643119 -305.5498578 108.03732236 -303.63818359 109.1184082 C-298.77436552 111.86865816 -293.90855881 114.61528339 -289.0390625 117.35546875 C-284.23858239 120.05753776 -279.44557394 122.77247007 -274.65673828 125.49511719 C-272.12974769 126.92650572 -269.5947441 128.34274014 -267.05859375 129.7578125 C-259.386916 134.08817852 -252.79288945 138.22075369 -247 145 C-246.00482399 146.00480083 -245.00547029 147.00550038 -244 148 C-243.01644531 147.34217529 -242.03289062 146.68435059 -241.01953125 146.0065918 C-220.07731198 132.02099127 -198.97950879 118.48521565 -177.19287109 105.85205078 C-173.28499947 103.58525814 -169.3917544 101.2942944 -165.5 99 C-164.8915625 98.64284912 -164.283125 98.28569824 -163.65625 97.91772461 C-146.62047097 87.91688589 -129.64261737 77.81313595 -112.7175293 67.6262207 C-107.70758815 64.61448502 -102.68557467 61.62373857 -97.65625 58.64453125 C-96.9995784 58.25549622 -96.3429068 57.86646118 -95.66633606 57.46563721 C-94.99760971 57.06947205 -94.32888336 56.67330688 -93.63989258 56.26513672 C-92.25991668 55.4476109 -90.87995259 54.63006515 -89.5 53.8125 C-88.81328217 53.40565979 -88.12656433 52.99881958 -87.41903687 52.57965088 C-77.27152617 46.56504557 -67.17177266 40.47724262 -57.10314941 34.33166504 C-47.43384967 28.43359265 -37.68199825 22.6861242 -27.89703369 16.98239136 C-18.48607879 11.49426994 -9.1723515 5.87897175 0 0 Z " fill="#4184F3" transform="translate(1039,429)"/>
<path d="M0 0 C11.6097474 5.53324183 22.72605892 11.8693002 33.89404297 18.23535156 C39.04114524 21.15967598 44.20796952 24.04857743 49.375 26.9375 C50.41309814 27.51830322 51.45119629 28.09910645 52.52075195 28.69750977 C54.62800538 29.87645772 56.735346 31.05524985 58.84277344 32.23388672 C64.06293711 35.15398137 69.28138679 38.07713566 74.5 41 C76.58332501 42.16668154 78.66665834 43.3333482 80.75 44.5 C93.25 51.5 105.75 58.5 118.25 65.5 C119.28157227 66.07766113 120.31314453 66.65532227 121.37597656 67.25048828 C123.45612132 68.41540836 125.53619962 69.58044714 127.61621094 70.74560547 C132.87278657 73.68997926 138.13055594 76.63218362 143.390625 79.5703125 C153.92714484 85.45846266 164.44310462 91.37734842 174.90722656 97.39331055 C180.90813256 100.83300629 186.95317689 104.18600214 193.01416016 107.51855469 C205.93574109 114.6318497 218.54690354 122.09915666 231 130 C232.83946462 131.15945587 234.6793136 132.31830216 236.51953125 133.4765625 C241.01789096 136.31005612 245.51067831 139.1522144 250 142 C249.51447914 143.69528587 249.51447914 143.69528587 249.01914978 145.42481995 C247.37164292 152.91003774 247.69572773 160.57896562 247.69360352 168.20288086 C247.68597271 169.94165906 247.67754364 171.68043391 247.66838074 173.41920471 C247.6465254 178.1216792 247.63764947 182.8240887 247.63255429 187.52660823 C247.62890144 190.46871562 247.62265673 193.41080622 247.6155529 196.35290718 C247.5910939 206.62842679 247.57801326 216.90389613 247.57446289 227.17944336 C247.57082579 236.74020637 247.54090871 246.30064876 247.49905831 255.86131376 C247.46432201 264.08664764 247.44891391 272.31187534 247.44821686 280.53728205 C247.44742548 285.44262672 247.43875001 290.34764401 247.41021919 295.25291252 C247.38397971 299.86682952 247.381866 304.4801489 247.39787483 309.09410667 C247.39968438 310.78149981 247.3930434 312.46892782 247.37705612 314.15624619 C247.28820097 324.14774882 247.59611162 332.85045715 254.53272343 340.74421597 C259.36048228 345.4908734 265.80202605 348.4317127 271.71960449 351.60357666 C274.3270193 353.00133074 276.92424115 354.41755429 279.52209473 355.83297729 C280.8333804 356.54734321 282.14514703 357.26082702 283.45739746 357.97341919 C288.93169398 360.94921066 294.35162781 364.0135524 299.75 367.125 C307.23856054 371.43422727 314.76499682 375.66988792 322.3125 379.875 C330.66198959 384.52980352 338.94674862 389.28044923 347.1875 394.125 C355.62526989 399.08181227 364.13677786 403.86538874 372.74902344 408.51196289 C380.67743675 412.79563205 388.51569489 417.23037197 396.32641602 421.72485352 C403.20417051 425.65262842 409.32465461 428.81779478 417.22436523 430.07836914 C418.84640114 430.33983482 418.84640114 430.33983482 420.50120544 430.60658264 C421.32580765 430.73641037 422.15040985 430.8662381 423 431 C424.28405686 486.76250497 424.12150013 542.52941122 424.07202661 598.30327094 C424.06062932 611.39021062 424.05529592 624.47715097 424.05032361 637.56409442 C424.0400082 664.37606845 424.02254279 691.18803365 424 718 C422.25481874 718.01210252 420.50961294 718.02069636 418.7644043 718.02783203 C417.30661812 718.03558151 417.30661812 718.03558151 415.81938171 718.04348755 C394.42355283 717.71346762 376.0797048 707.30410095 358 697 C356.69820801 696.26040039 356.69820801 696.26040039 355.37011719 695.50585938 C351.06739017 693.05885741 346.77210803 690.59919848 342.48046875 688.1328125 C336.51207392 684.71019395 330.50720111 681.35390209 324.5 678 C315.95371491 673.22679846 307.43672887 668.40685024 298.9465332 663.53466797 C292.22103451 659.68153754 285.45804171 655.89829967 278.6875 652.125 C270.33807707 647.4700859 262.05313134 642.71975576 253.8125 637.875 C245.38964207 632.92440551 236.88418396 628.1708479 228.28393555 623.53637695 C221.47891187 619.85171747 214.79150534 615.991468 208.125 612.0625 C199.11674927 606.75683934 190.00345032 601.69688792 180.79174805 596.75415039 C171.6527352 591.84141745 162.65450896 586.70238336 153.66259766 581.52685547 C148.99556875 578.8505673 144.31012027 576.20694969 139.625 573.5625 C138.66843506 573.02238281 137.71187012 572.48226562 136.72631836 571.92578125 C134.78670374 570.83074552 132.84700627 569.73585654 130.90722656 568.64111328 C126.10363018 565.92950975 121.30192681 563.21455863 116.5 560.5 C115.07494141 559.6946582 115.07494141 559.6946582 113.62109375 558.87304688 C108.8532927 556.17862471 104.0861444 553.48306006 99.3203125 550.78515625 C89.3524559 545.14411947 79.37264413 539.52559226 69.375 533.9375 C59.0207411 528.14631102 48.69372338 522.31060866 38.41503906 516.38623047 C36.05089822 515.02921554 33.67857531 513.6875285 31.3046875 512.34765625 C11.49659912 501.08094626 -1.71756894 487.83876823 -8.421875 465.58203125 C-9.76023593 459.60462197 -10.12531595 453.70367213 -10.13142776 447.59306812 C-10.1334804 446.88945382 -10.13553303 446.18583951 -10.13764787 445.46090356 C-10.14327903 443.11534127 -10.14186545 440.76983843 -10.14044189 438.42427063 C-10.14302779 436.7205399 -10.14604157 435.01680978 -10.1494453 433.31308049 C-10.1574927 428.640042 -10.15930361 423.96701888 -10.16004276 419.29397428 C-10.16189734 414.25003549 -10.16944688 409.20610461 -10.17617798 404.16217041 C-10.1897474 393.13472739 -10.19578431 382.10728802 -10.20018864 371.07983804 C-10.20295432 364.18761064 -10.20719236 357.29538464 -10.21169281 350.40315819 C-10.22388539 331.30316029 -10.2341836 312.20316351 -10.2375679 293.10316181 C-10.23778747 291.88116691 -10.23800703 290.65917202 -10.23823325 289.40014697 C-10.23845153 288.175293 -10.23866981 286.95043903 -10.2388947 285.68846828 C-10.23933816 283.20661883 -10.23978472 280.72476937 -10.24023438 278.24291992 C-10.2404558 277.01184732 -10.24067723 275.78077472 -10.24090537 274.51239689 C-10.24484904 254.5875411 -10.26228994 234.66272197 -10.2855939 214.73788033 C-10.30935226 194.25830946 -10.32177185 173.77875696 -10.32293582 153.2991721 C-10.32385025 141.81013345 -10.3295435 130.32114253 -10.34775543 118.83211708 C-10.36321728 109.04371386 -10.36824131 99.25537312 -10.36001733 89.46695999 C-10.3561318 84.48007452 -10.35693674 79.49331465 -10.37107468 74.50644493 C-10.51688886 19.82215458 -10.51688886 19.82215458 0 0 Z " fill="#073041" transform="translate(204,441)"/>
<path d="M0 0 C1.05960938 0.08894531 1.05960938 0.08894531 2.140625 0.1796875 C17.61069571 2.27992889 32.74857416 13.70998649 46.01220703 21.29443359 C50.83225772 24.04593499 55.66663721 26.77197461 60.5 29.5 C62.41673946 30.58320453 64.33340604 31.66653803 66.25 32.75 C67.19875 33.28625 68.1475 33.8225 69.125 34.375 C79.66666667 40.33333333 90.20833333 46.29166667 100.75 52.25 C101.6992334 52.7864917 102.6484668 53.3229834 103.62646484 53.87573242 C105.5383579 54.95643119 107.4501422 56.03732236 109.36181641 57.1184082 C114.22563448 59.86865816 119.09144119 62.61528339 123.9609375 65.35546875 C128.76141761 68.05753776 133.55442606 70.77247007 138.34326172 73.49511719 C140.87025231 74.92650572 143.4052559 76.34274014 145.94140625 77.7578125 C158.22711839 84.68570851 168.37324856 92.19306347 173.06048584 106.16001892 C174.70536393 113.00326934 174.27828309 120.13246435 174.25878906 127.12719727 C174.26150208 128.76232051 174.26506476 130.39744253 174.26940918 132.03256226 C174.27849772 136.45600187 174.27500374 140.8793478 174.26865101 145.30278897 C174.26357355 149.93997521 174.26828723 154.57715364 174.27142334 159.21434021 C174.27505753 166.999272 174.27027786 174.78416578 174.26074219 182.5690918 C174.24985487 191.56117978 174.25338743 200.55317708 174.264395 209.54526287 C174.27347889 217.27626303 174.27474787 225.00723593 174.26951766 232.73823971 C174.26640452 237.35107245 174.26597067 241.9638626 174.27259064 246.57669258 C174.27837963 250.9130222 174.2743388 255.24923516 174.26280212 259.58555222 C174.26016401 261.17421081 174.2609061 262.76287926 174.26532745 264.35153389 C174.27081791 266.5251824 174.26390686 268.69846046 174.25396729 270.87208557 C174.25283621 272.69409406 174.25283621 272.69409406 174.25168228 274.5529108 C173.81748745 280.49972712 171.89888111 285.67134632 169.3125 291 C168.85488281 291.969375 168.39726563 292.93875 167.92578125 293.9375 C162.61342031 302.38555472 154.95359507 306.75531911 146.4375 311.625 C145.22380972 312.32971479 144.01076548 313.0355433 142.79833984 313.74243164 C140.35228089 315.1670694 137.9033026 316.58645842 135.45166016 318.00146484 C130.65526357 320.77861171 125.89040795 323.60764699 121.125 326.4375 C115.11440208 329.99315892 109.09468772 333.53300408 103.06640625 337.05859375 C100.60672405 338.49731588 98.14707091 339.93608762 95.6875 341.375 C95.07236542 341.73484985 94.45723083 342.09469971 93.82345581 342.4654541 C85.24543647 347.48586995 76.70161269 352.55916344 68.1875 357.6875 C57.07308508 364.3795179 45.89985162 370.96416797 34.66650391 377.45458984 C32.20247115 378.88265498 29.7469844 380.32434766 27.29296875 381.76953125 C15.97497025 388.3801921 5.23523577 393.47556042 -8.20385742 390.5144043 C-15.11389216 388.64466241 -21.09014888 385.54648441 -27.3125 382.0625 C-28.87955688 381.19915039 -28.87955688 381.19915039 -30.47827148 380.31835938 C-38.94526574 375.63648141 -47.35300254 370.84984334 -55.73828125 366.0234375 C-61.22732761 362.86422977 -66.73593637 359.74029814 -72.25 356.625 C-73.67493774 355.81977905 -73.67493774 355.81977905 -75.12866211 354.99829102 C-82.28376599 350.95947766 -89.45314363 346.94646856 -96.625 342.9375 C-105.11955882 338.18915905 -113.58626836 333.39593638 -122.02539062 328.54980469 C-126.82574501 325.79811413 -131.64178356 323.07753313 -136.4765625 320.38671875 C-137.58193359 319.77119141 -138.68730469 319.15566406 -139.82617188 318.52148438 C-141.95343304 317.33883296 -144.08222867 316.1589354 -146.21289062 314.98242188 C-170.91631697 301.24751096 -170.91631697 301.24751096 -175 289 C-175.38031673 285.39229298 -175.38031673 285.39229298 -175.38768005 281.48139954 C-175.39575836 280.39481978 -175.39575836 280.39481978 -175.40399987 279.28628892 C-175.41822687 276.87598563 -175.41118889 274.46623565 -175.40405273 272.0559082 C-175.40975926 270.32066916 -175.41672462 268.58543387 -175.42485046 266.85020447 C-175.44277091 262.14742962 -175.44161495 257.4448415 -175.43590808 252.74204278 C-175.432813 248.80853444 -175.43891261 244.8750618 -175.44494683 240.94155854 C-175.45898832 231.654775 -175.45743536 222.36808344 -175.44604492 213.08129883 C-175.43457854 203.52178693 -175.44861532 193.96255608 -175.4754414 184.40308124 C-175.49764919 176.17944602 -175.50422392 167.95589867 -175.49836498 159.73223561 C-175.49500459 154.82798135 -175.49734859 149.92390698 -175.51461601 145.01967812 C-175.53016294 140.40254081 -175.52604425 135.78581688 -175.50731087 131.16869545 C-175.50364557 129.48215815 -175.50667278 127.79558971 -175.51719666 126.10908127 C-175.59272443 112.99522706 -174.3733541 100.97209257 -165 91 C-156.79566089 82.7231844 -156.79566089 82.7231844 -151 82 C-151 81.34 -151 80.68 -151 80 C-145.7792663 76.13434607 -140.33605675 73.37740364 -134 72 C-134 71.34 -134 70.68 -134 70 C-131.525 69.505 -131.525 69.505 -129 69 C-129 68.34 -129 67.68 -129 67 C-127.390625 65.7109375 -127.390625 65.7109375 -125.25 64.375 C-124.55390625 63.92898438 -123.8578125 63.48296875 -123.140625 63.0234375 C-121 62 -121 62 -117 62 C-117 61.34 -117 60.68 -117 60 C-114.525 59.505 -114.525 59.505 -112 59 C-112 58.34 -112 57.68 -112 57 C-106.7792663 53.13434607 -101.33605675 50.37740364 -95 49 C-95 48.34 -95 47.68 -95 47 C-93.35 46.67 -91.7 46.34 -90 46 C-90 45.34 -90 44.68 -90 44 C-85.00791529 39.87846958 -79.14814677 37.75051401 -73 36 C-73 35.34 -73 34.68 -73 34 C-68.00791529 29.87846958 -62.14814677 27.75051401 -56 26 C-56 25.34 -56 24.68 -56 24 C-54.35 23.67 -52.7 23.34 -51 23 C-51 22.34 -51 21.68 -51 21 C-46.00791529 16.87846958 -40.14814677 14.75051401 -34 13 C-34 12.34 -34 11.68 -34 11 C-24.44502455 3.89501826 -12.04171879 -1.20417188 0 0 Z " fill="#D5EFFE" transform="translate(626,481)"/>
<path d="M0 0 C1.13178582 1.98450117 2.2284569 3.98902149 3.3125 6 C3.92738281 7.11375 4.54226563 8.2275 5.17578125 9.375 C11.23608149 23.04835037 10.4266518 38.687154 10.37231445 53.29003906 C10.37474724 55.59802412 10.37847127 57.90600813 10.38337708 60.21398926 C10.3927208 66.43684671 10.38341687 72.65954508 10.37004495 78.88239002 C10.35866427 85.41636467 10.36284291 91.95033224 10.36479187 98.48431396 C10.36621322 109.44887783 10.35471245 120.41338287 10.33618164 131.37792969 C10.31716489 142.63315707 10.31010014 153.88831238 10.31567383 165.14355469 C10.32239315 178.75223218 10.31906746 192.36086178 10.30657005 205.96953583 C10.30193956 211.15104514 10.30104346 216.33253491 10.3031559 221.51404572 C10.30504607 227.61762179 10.29687896 233.7211061 10.2810955 239.82466125 C10.27687091 242.05786001 10.27598974 244.29106811 10.27878571 246.5242691 C10.3000958 266.59688504 9.11595925 284.187105 -3 301 C-3.46148438 301.64710938 -3.92296875 302.29421875 -4.3984375 302.9609375 C-11.8500906 312.48010129 -23.50769843 318.26172896 -33.8125 324.1875 C-35.10260012 324.93553159 -36.39230767 325.68424061 -37.68164062 326.43359375 C-40.25869933 327.93100685 -42.83710399 329.4260575 -45.41650391 330.91943359 C-50.29625136 333.74824225 -55.14900678 336.6222379 -60 339.5 C-65.96631379 343.03359387 -71.93993804 346.55426994 -77.92578125 350.0546875 C-78.52666061 350.40611313 -79.12753998 350.75753876 -79.74662781 351.11961365 C-80.35400284 351.47483597 -80.96137787 351.83005829 -81.5871582 352.19604492 C-93.06449881 358.90876548 -104.50141475 365.68107625 -115.89111328 372.54199219 C-123.95459666 377.39168435 -132.0689394 382.14932393 -140.20361328 386.87841797 C-146.71396058 390.66360271 -153.20783765 394.47503584 -159.6875 398.3125 C-169.51263748 404.13021637 -179.3602339 409.90915127 -189.21655273 415.67382812 C-194.96520939 419.03764429 -200.7056748 422.41318724 -206.421875 425.83203125 C-207.9059082 426.71761719 -207.9059082 426.71761719 -209.41992188 427.62109375 C-211.23629125 428.70665336 -213.05031156 429.79615874 -214.86132812 430.890625 C-222.39967056 435.39094978 -229.64290829 439.01415294 -238.3125 440.75 C-239.48425781 440.99234375 -240.65601563 441.2346875 -241.86328125 441.484375 C-245 442 -245 442 -249 442 C-249.97535374 419.46050882 -250.08934864 396.93121484 -250.0625 374.375 C-250.06164398 373.65076214 -250.06078796 372.92652428 -250.05990601 372.18033981 C-250.04841132 363.12020412 -250.02818698 354.06009993 -250 345 C-249.10334625 344.80061325 -248.2066925 344.6012265 -247.28286743 344.39579773 C-246.10880341 344.13071915 -244.93473938 343.86564056 -243.72509766 343.5925293 C-242.56031891 343.33126755 -241.39554016 343.0700058 -240.19546509 342.80082703 C-236.58629868 341.89632082 -233.6139731 340.64122254 -230.375 338.8125 C-229.479021 338.31254517 -229.479021 338.31254517 -228.56494141 337.80249023 C-226.36210435 336.55872793 -224.18049515 335.28254043 -222 334 C-221.06414063 333.45150391 -220.12828125 332.90300781 -219.1640625 332.33789062 C-213.53423503 329.03018973 -207.91958227 325.69759838 -202.3125 322.3515625 C-195.63133135 318.36522928 -188.92087929 314.43027521 -182.20327759 310.5057373 C-171.45800311 304.22742206 -160.76091877 297.87560163 -150.10107422 291.45288086 C-143.10135367 287.24220751 -136.06287791 283.10370695 -129 279 C-127.03109144 277.85053197 -125.06234214 276.70079111 -123.09375 275.55078125 C-119.95109652 273.71534444 -116.8046021 271.88781131 -113.6484375 270.07568359 C-110.25700408 268.12744415 -106.87796646 266.15897513 -103.5 264.1875 C-101.95119141 263.30868164 -101.95119141 263.30868164 -100.37109375 262.41210938 C-90.39738078 256.5448329 -83.07094503 248.98980439 -79 238 C-78.11631507 233.62112292 -77.87048991 229.46157134 -77.85955811 224.99906921 C-77.85658698 224.31833951 -77.85361586 223.63760981 -77.8505547 222.93625194 C-77.84192201 220.66801922 -77.8403641 218.39983961 -77.83886719 216.1315918 C-77.83423522 214.50000904 -77.82921006 212.86842736 -77.82382202 211.23684692 C-77.81073389 206.81318569 -77.80426027 202.3895396 -77.79981136 197.96586204 C-77.7968753 195.199502 -77.79276953 192.43314606 -77.78830719 189.6667881 C-77.77464272 181.00367906 -77.7649705 172.34057944 -77.7611053 163.67746037 C-77.7566247 153.69129146 -77.7390723 143.70525943 -77.7101047 133.71913213 C-77.68846494 125.98984457 -77.67839982 118.26059547 -77.67706418 110.53127795 C-77.67601795 105.91943103 -77.67014873 101.30771297 -77.65224457 96.69589806 C-77.63572379 92.35628038 -77.63362775 88.0168879 -77.64238358 83.67724991 C-77.64315176 82.08942498 -77.63884014 80.50158773 -77.62892532 78.91379356 C-77.58092668 70.74461028 -77.78124549 63.62278463 -81 56 C-81.391875 54.989375 -81.78375 53.97875 -82.1875 52.9375 C-82.5896875 51.9784375 -82.5896875 51.9784375 -83 51 C-60.7834817 35.92122673 -38.45189093 21.27591118 -15.18896484 7.85742188 C-11.38235532 5.64025105 -7.62632128 3.34630424 -3.8840332 1.02246094 C-2 0 -2 0 0 0 Z " fill="#3870B2" transform="translate(877,527)"/>
<path d="M0 0 C3.26919459 0.66707719 5.86808847 1.86369105 8.796875 3.44921875 C10.21589111 4.21552612 10.21589111 4.21552612 11.66357422 4.99731445 C13.19135498 5.8339563 13.19135498 5.8339563 14.75 6.6875 C15.81621582 7.26910889 16.88243164 7.85071777 17.98095703 8.44995117 C40.38167238 20.73957531 62.8699768 33.59648937 84 48 C83.67631943 49.13019058 83.35263885 50.26038116 83.01914978 51.42481995 C81.37164292 58.91003774 81.69572773 66.57896562 81.69360352 74.20288086 C81.68597271 75.94165906 81.67754364 77.68043391 81.66838074 79.41920471 C81.6465254 84.1216792 81.63764947 88.8240887 81.63255429 93.52660823 C81.62890144 96.46871562 81.62265673 99.41080622 81.6155529 102.35290718 C81.5910939 112.62842679 81.57801326 122.90389613 81.57446289 133.17944336 C81.57082579 142.74020637 81.54090871 152.30064876 81.49905831 161.86131376 C81.46432201 170.08664764 81.44891391 178.31187534 81.44821686 186.53728205 C81.44742548 191.44262672 81.43875001 196.34764401 81.41021919 201.25291252 C81.38397971 205.86682952 81.381866 210.4801489 81.39787483 215.09410667 C81.39968438 216.78149981 81.3930434 218.46892782 81.37705612 220.15624619 C81.28820097 230.14774882 81.59611162 238.85045715 88.53272343 246.74421597 C93.36048228 251.4908734 99.80202605 254.4317127 105.71960449 257.60357666 C108.3270193 259.00133074 110.92424115 260.41755429 113.52209473 261.83297729 C114.8333804 262.54734321 116.14514703 263.26082702 117.45739746 263.97341919 C122.93169398 266.94921066 128.35162781 270.0135524 133.75 273.125 C141.23856054 277.43422727 148.76499682 281.66988792 156.3125 285.875 C164.66198959 290.52980352 172.94674862 295.28044923 181.1875 300.125 C189.62526989 305.08181227 198.13677786 309.86538874 206.74902344 314.51196289 C214.67743675 318.79563205 222.51569489 323.23037197 230.32641602 327.72485352 C237.20417051 331.65262842 243.32465461 334.81779478 251.22436523 336.07836914 C252.84640114 336.33983482 252.84640114 336.33983482 254.50120544 336.60658264 C255.32580765 336.73641037 256.15040985 336.8662381 257 337 C257.17186209 346.79158025 257.33832936 356.58324666 257.5 366.375 C257.51781588 367.45374327 257.51781588 367.45374327 257.53599167 368.55427933 C257.8946721 390.37049109 258.16322697 412.18032124 258 434 C236.03306982 434.53282521 218.49032587 422.13407086 200.26245117 411.38964844 C193.19042988 407.2323443 186.04106677 403.25307413 178.8125 399.375 C168.66077838 393.92819512 158.64684421 388.27354767 148.66259766 382.52685547 C143.99556875 379.8505673 139.31012027 377.20694969 134.625 374.5625 C133.66843506 374.02238281 132.71187012 373.48226563 131.72631836 372.92578125 C129.78670374 371.83074552 127.84700627 370.73585654 125.90722656 369.64111328 C121.10363018 366.92950975 116.30192681 364.21455863 111.5 361.5 C110.54996094 360.96310547 109.59992188 360.42621094 108.62109375 359.87304688 C103.8532927 357.17862471 99.0861444 354.48306006 94.3203125 351.78515625 C84.35245628 346.14411968 74.37268249 340.52552327 64.375 334.9375 C54.89324241 329.6350859 45.43475563 324.29476036 36.01953125 318.875 C32.63682032 316.92883694 29.23784446 315.01637669 25.82421875 313.125 C11.07950387 304.90053965 0.00928925 297.42935038 -5.0559721 280.46295929 C-6.27016028 275.47258406 -6.28095384 270.61676353 -6.26069641 265.50280762 C-6.26643473 263.95365465 -6.26643473 263.95365465 -6.27228898 262.37320566 C-6.28257735 258.92518374 -6.27863463 255.47732964 -6.2746582 252.02929688 C-6.27900713 249.55164435 -6.28419089 247.07399318 -6.29014587 244.59634399 C-6.30214201 238.57083713 -6.30468891 232.54539577 -6.30234561 226.51988298 C-6.30055896 221.61650651 -6.30231953 216.71314353 -6.30657005 211.80976868 C-6.30716524 211.11053041 -6.30776043 210.41129214 -6.30837366 209.69086483 C-6.30958549 208.2700508 -6.31079963 206.84923677 -6.31201603 205.42842275 C-6.32288493 192.11208816 -6.32073294 178.79577891 -6.31463119 165.47944289 C-6.30947005 153.32719219 -6.32069736 141.17502185 -6.33972941 129.02278703 C-6.35915889 116.51999173 -6.3673544 104.01723433 -6.36360615 91.51442385 C-6.36170088 84.50523009 -6.3641149 77.49610458 -6.37832069 70.48692322 C-6.39156088 63.88768829 -6.38890532 57.28858646 -6.37590981 50.6893425 C-6.3735554 48.27721984 -6.37623761 45.86508577 -6.38453293 43.45297623 C-6.48496775 11.95848579 -6.48496775 11.95848579 0 0 Z " fill="#041619" transform="translate(370,535)"/>
<path d="M0 0 C1.85251125 1.07482796 3.70538882 2.14902476 5.55859375 3.22265625 C6.50718262 3.77453613 7.45577148 4.32641602 8.43310547 4.89501953 C13.12304726 7.61100244 17.84224048 10.27466457 22.5625 12.9375 C23.51133057 13.47358887 24.46016113 14.00967773 25.43774414 14.56201172 C32.59374416 18.60198894 39.76446373 22.61537189 46.9375 26.625 C55.43921605 31.37734174 63.91131544 36.17754796 72.35986328 41.02368164 C79.1528325 44.91429396 85.97808786 48.74523078 92.8125 52.5625 C101.35869592 57.33586309 109.87576928 62.1556487 118.3659668 67.02783203 C125.09146608 70.8809628 131.8544834 74.6641545 138.625 78.4375 C148.02364813 83.67812074 157.33734157 89.04886729 166.61083984 94.50756836 C173.8603356 98.75998862 181.18786449 102.8462311 188.63208008 106.7487793 C196.32784476 110.87100791 203.09542441 116.05090668 209.25 122.25 C210.34634766 123.33861328 210.34634766 123.33861328 211.46484375 124.44921875 C213.20595703 126.44064008 214.19072146 128.19354399 215.3125 130.5625 C211.70666946 132.75538264 208.10028191 134.94734608 204.49356079 137.13876343 C202.54892292 138.32075242 200.60489494 139.50374014 198.66088867 140.68676758 C187.61279474 147.40496928 187.61279474 147.40496928 182.16015625 150.58984375 C165.74996381 160.19615011 150.07084958 170.93398406 134.3125 181.5625 C133.57032227 180.81709961 132.82814453 180.07169922 132.06347656 179.30371094 C124.49664844 171.76374411 117.01293912 166.34200781 107.5625 161.3125 C106.3581266 160.6596849 105.15452415 160.00544567 103.95166016 159.34985352 C102.13124753 158.35777752 100.31049684 157.36642629 98.48733521 156.37940979 C93.17277248 153.50117665 87.923055 150.51886388 82.6875 147.5 C75.09123512 143.13531158 67.46147675 138.83411991 59.8125 134.5625 C52.12322984 130.2678299 44.45223577 125.94469461 36.8125 121.5625 C28.17120143 116.60677729 19.49112434 111.72313362 10.79174805 106.87011719 C5.45433745 103.89067365 0.128742 100.89314277 -5.17578125 97.85546875 C-6.21750488 97.26048584 -7.25922852 96.66550293 -8.33251953 96.05249023 C-10.30869349 94.92231917 -12.28247479 93.78795032 -14.25341797 92.64868164 C-25.75388296 86.08189738 -36.61438658 83.80668165 -49.5625 87.1875 C-55.21717483 88.87782215 -59.90092534 91.11585072 -64.796875 94.390625 C-66.6875 95.5625 -66.6875 95.5625 -68.6875 95.5625 C-68.6875 96.2225 -68.6875 96.8825 -68.6875 97.5625 C-73.85468836 101.16387371 -79.85935735 103.26656501 -85.6875 105.5625 C-85.6875 106.2225 -85.6875 106.8825 -85.6875 107.5625 C-88.1625 108.0575 -88.1625 108.0575 -90.6875 108.5625 C-90.6875 109.2225 -90.6875 109.8825 -90.6875 110.5625 C-95.85468836 114.16387371 -101.85935735 116.26656501 -107.6875 118.5625 C-107.6875 119.2225 -107.6875 119.8825 -107.6875 120.5625 C-112.85468836 124.16387371 -118.85935735 126.26656501 -124.6875 128.5625 C-124.6875 129.2225 -124.6875 129.8825 -124.6875 130.5625 C-126.3375 130.8925 -127.9875 131.2225 -129.6875 131.5625 C-129.6875 132.2225 -129.6875 132.8825 -129.6875 133.5625 C-131.957116 134.71079977 -134.22810778 135.85621978 -136.5 137 C-137.14259766 137.32548828 -137.78519531 137.65097656 -138.44726562 137.98632812 C-141.17015466 139.35482676 -143.79199794 140.59733265 -146.6875 141.5625 C-146.6875 142.2225 -146.6875 142.8825 -146.6875 143.5625 C-148.3375 143.8925 -149.9875 144.2225 -151.6875 144.5625 C-151.6875 145.2225 -151.6875 145.8825 -151.6875 146.5625 C-155.66938718 148.28017682 -159.65229403 149.97287341 -163.6875 151.5625 C-163.6875 152.2225 -163.6875 152.8825 -163.6875 153.5625 C-165.3375 153.8925 -166.9875 154.2225 -168.6875 154.5625 C-168.6875 155.2225 -168.6875 155.8825 -168.6875 156.5625 C-170.957116 157.71079977 -173.22810778 158.85621978 -175.5 160 C-176.14259766 160.32548828 -176.78519531 160.65097656 -177.44726562 160.98632812 C-180.17015466 162.35482676 -182.79199794 163.59733265 -185.6875 164.5625 C-185.6875 165.2225 -185.6875 165.8825 -185.6875 166.5625 C-186.57308594 166.97113281 -187.45867187 167.37976563 -188.37109375 167.80078125 C-196.47005224 172.10305484 -202.33901492 178.59027736 -206.6875 186.5625 C-214.60267414 182.36970246 -222.224194 177.81675258 -229.8125 173.0625 C-241.53112171 165.77153165 -253.47875471 158.96246564 -265.56347656 152.29443359 C-270.97806907 149.29262684 -276.36323207 146.23886936 -281.75 143.1875 C-282.7505542 142.62135986 -283.7511084 142.05521973 -284.78198242 141.47192383 C-287.0841068 140.16928522 -289.38595063 138.86615419 -291.6875 137.5625 C-290.74487198 136.13580443 -289.80052449 134.71024484 -288.85546875 133.28515625 C-288.32977295 132.49117432 -287.80407715 131.69719238 -287.26245117 130.87915039 C-278.14102725 117.46213108 -263.641491 110.41157837 -249.93310547 102.44873047 C-244.68955574 99.40136585 -239.45650711 96.33608342 -234.22366333 93.27038574 C-232.9877137 92.54640739 -231.75160844 91.82269466 -230.51535034 91.09924316 C-221.93583174 86.07814155 -213.39047006 81.00426794 -204.875 75.875 C-193.94348204 69.29176438 -182.93568454 62.84731193 -171.90380859 56.43408203 C-166.01392962 53.00673937 -160.13049305 49.56841854 -154.25 46.125 C-153.63859161 45.76701324 -153.02718323 45.40902649 -152.39724731 45.04019165 C-142.82404685 39.43175683 -133.2999884 33.74517419 -123.79589844 28.02026367 C-115.74622112 23.17874445 -107.64827618 18.42461497 -99.5234375 13.71044922 C-94.55725192 10.82746681 -89.60524341 7.92462162 -84.6796875 4.97265625 C-83.21631958 4.09794678 -83.21631958 4.09794678 -81.72338867 3.20556641 C-79.89774238 2.11240064 -78.07473225 1.01481297 -76.25512695 -0.08837891 C-50.22818588 -15.64766231 -26.04201642 -15.3488993 0 0 Z " fill="#37BF6E" transform="translate(660.6875,396.4375)"/>
</svg>
